<?xml version="1.0" standalone="no"?>
<!DOCTYPE svg PUBLIC "-//W3C//DTD SVG 20010904//EN"
 "http://www.w3.org/TR/2001/REC-SVG-20010904/DTD/svg10.dtd">
<svg version="1.0" xmlns="http://www.w3.org/2000/svg"
 width="458.000000pt" height="458.000000pt" viewBox="0 0 458.000000 458.000000"
 preserveAspectRatio="xMidYMid meet">
<metadata>
Created by potrace 1.14, written by Peter Selinger 2001-2017
</metadata>
<g transform="translate(0.000000,458.000000) scale(0.100000,-0.100000)"
fill="#000000" stroke="none">
<path d="M1145 3979 c-149 -34 -273 -102 -377 -211 -76 -79 -126 -162 -166
-275 l-27 -78 -3 -1100 c-2 -1076 -2 -1102 18 -1180 21 -84 77 -215 91 -215 5
0 9 -6 9 -13 0 -17 144 -167 185 -193 57 -36 70 -43 95 -54 14 -5 32 -14 40
-18 8 -5 38 -15 67 -22 29 -8 50 -17 47 -21 -2 -5 506 -8 1129 -8 1017 -1
1138 1 1166 15 18 9 41 14 52 11 10 -3 19 -1 19 3 0 5 17 14 38 21 20 6 49 20
64 30 14 11 30 19 36 19 5 0 22 11 38 25 43 38 54 46 54 42 0 -7 84 80 97 100
6 10 16 17 21 16 5 -1 9 5 8 15 0 9 5 16 12 14 8 -1 11 2 8 7 -6 9 21 70 36
81 3 3 10 19 14 35 4 17 10 35 15 40 4 6 14 39 23 75 13 56 15 210 15 1150 0
1050 0 1087 -20 1160 -19 74 -75 202 -91 208 -4 2 -8 9 -8 16 0 17 -152 176
-168 176 -7 0 -12 3 -12 8 0 8 -10 14 -102 59 -146 72 -61 68 -1283 69 -621 1
-1117 -2 -1140 -7z"/>
</g>
</svg>
